<?xml version="1.0" encoding="UTF-8"?>
<svg width="822px" height="822px" viewBox="0 0 822 822" version="1.1" xmlns="http://www.w3.org/2000/svg" xmlns:xlink="http://www.w3.org/1999/xlink">
    <!-- Generator: Sketch 40.1 (33804) - http://www.bohemiancoding.com/sketch -->
    <title>Group</title>
    <desc>Created with Sketch.</desc>
    <defs>
        <circle id="path-1" cx="410" cy="410" r="410"></circle>
    </defs>
    <g id="Page-1" stroke="none" stroke-width="1" fill="none" fill-rule="evenodd">
        <g id="logo" transform="translate(1.000000, 1.000000)">
            <g id="Group">
                <g id="Oval" opacity="0.388001399">
                    <use fill="#FEFEFE" fill-rule="evenodd" style="mix-blend-mode: lighten;" xlink:href="#path-1"></use>
                    <use stroke="#FFFFFF" stroke-width="1" xlink:href="#path-1"></use>
                </g>
                <path d="M408.000412,713 C228.5082,713 83,574.433232 83,403.5 C83,232.568351 228.5082,94 408.000412,94 C587.492624,94 733,232.568351 733,403.5 C733,574.433232 587.492624,713 408.000412,713 Z" id="Fill-1" fill="#191717"></path>
                <polygon id="Fill-3" fill="#1A1717" points="250.841196 673.562409 142.048547 672.688186 142.048547 569.495827"></polygon>
                <polygon id="Fill-5" fill="#FEFEFE" points="349.434534 365.216981 308.305098 488.004536 281.330143 488.004536 249.990842 385.469063 218.652364 488.004536 192.026557 488.004536 150.547973 365.216981 173.754768 365.216981 205.378986 468.024097 236.798987 365.216981 263.181873 365.216981 294.661163 468.21496 326.242562 365.216981"></polygon>
                <polygon id="Stroke-7" stroke="#FEFEFE" stroke-width="10.622" points="307.738469 488.004536 280.763515 488.004536 249.424213 385.469063 240.102008 415.97012 218.085735 488.004536 191.459928 488.004536 149.981345 365.216981 173.188139 365.216981 204.812358 468.024097 236.232359 365.216981 262.615244 365.216981 294.094534 468.21496 310.078239 416.086513 325.675933 365.216981 348.867905 365.216981"></polygon>
                <path d="M459.416192,469.652696 C471.941953,469.652696 482.231648,465.702715 490.294358,457.800372 C498.353767,449.898028 502.385122,439.749773 502.385122,427.353225 C502.385122,414.164935 498.063218,403.533542 489.424365,395.459047 C480.782209,387.386138 469.44588,383.349684 455.415378,383.349684 L394.874891,383.349684 L394.874891,469.652696 L459.416192,469.652696 Z M453.675391,365 C475.59444,365 492.959642,370.692924 505.77595,382.075598 C518.590608,393.456686 525,408.720323 525,427.858575 C525,445.416517 518.215041,460.026451 504.645949,471.690757 C492.002979,482.562528 476.347223,488 457.676205,488 L374,488 L374,365 L453.675391,365 Z" id="Fill-9" fill="#FEFEFE"></path>
                <path d="M459.416192,469.652696 C471.941953,469.652696 482.231648,465.702715 490.294358,457.800372 C498.353767,449.898028 502.385122,439.749773 502.385122,427.353225 C502.385122,414.164935 498.063218,403.533542 489.424365,395.459047 C480.782209,387.386138 469.44588,383.349684 455.415378,383.349684 L394.874891,383.349684 L394.874891,469.652696 L459.416192,469.652696 L459.416192,469.652696 Z M453.675391,365 C475.59444,365 492.959642,370.692924 505.77595,382.075598 C518.590608,393.456686 525,408.720323 525,427.858575 C525,445.416517 518.215041,460.026451 504.645949,471.690757 C492.002979,482.562528 476.347223,488 457.676205,488 L374,488 L374,365 L453.675391,365 L453.675391,365 Z" id="Stroke-11" stroke="#FEFEFE" stroke-width="10.622"></path>
                <polygon id="Fill-13" fill="#3299CC" points="672.979338 383.534297 613.099829 383.534297 613.099829 488.004536 592.332545 488.004536 592.332545 383.534297 532.4555 383.534297 532.4555 365.216981 672.979338 365.216981"></polygon>
                <polygon id="Stroke-15" stroke="#3299CC" stroke-width="10.622" points="671.279453 383.534297 611.399944 383.534297 611.399944 488.004536 590.63266 488.004536 590.63266 383.534297 530.755615 383.534297 530.755615 365.216981 671.279453 365.216981"></polygon>
                <polygon id="Fill-17" fill="#F9D133" points="356.427731 359.790039 312.253906 493.887695 276.570312 493.887695 322.003906 359.790039"></polygon>
            </g>
        </g>
    </g>
</svg>