<?xml version="1.0" encoding="UTF-8"?>
<svg width="1552px" height="1012px" viewBox="0 0 1552 1012" version="1.1" xmlns="http://www.w3.org/2000/svg" xmlns:xlink="http://www.w3.org/1999/xlink">
    <!-- Generator: Sketch 40.1 (33804) - http://www.bohemiancoding.com/sketch -->
    <title>Group 3</title>
    <desc>Created with Sketch.</desc>
    <defs>
        <circle id="path-1" cx="779" cy="410" r="410"></circle>
    </defs>
    <g id="Page-1" stroke="none" stroke-width="1" fill="none" fill-rule="evenodd">
        <g id="logo" transform="translate(0.000000, 1.000000)">
            <g id="Group">
                <g id="Group-2">
                    <g id="Group-3">
                        <g id="Oval" opacity="0.388001399">
                            <use fill="#FEFEFE" fill-rule="evenodd" style="mix-blend-mode: lighten;" xlink:href="#path-1"></use>
                            <use stroke="#FFFFFF" stroke-width="1" xlink:href="#path-1"></use>
                        </g>
                        <path d="M777.000412,713 C597.5082,713 452,574.433232 452,403.5 C452,232.568351 597.5082,94 777.000412,94 C956.492624,94 1102,232.568351 1102,403.5 C1102,574.433232 956.492624,713 777.000412,713 Z" id="Fill-1" fill="#191717"></path>
                        <polygon id="Fill-3" fill="#1A1717" points="619.841196 673.562409 511.048547 672.688186 511.048547 569.495827"></polygon>
                        <polygon id="Fill-5" fill="#FEFEFE" points="718.434534 365.216981 677.305098 488.004536 650.330143 488.004536 618.990842 385.469063 587.652364 488.004536 561.026557 488.004536 519.547973 365.216981 542.754768 365.216981 574.378986 468.024097 605.798987 365.216981 632.181873 365.216981 663.661163 468.21496 695.242562 365.216981"></polygon>
                        <polygon id="Stroke-7" stroke="#FEFEFE" stroke-width="10.622" points="676.738469 488.004536 649.763515 488.004536 618.424213 385.469063 609.102008 415.97012 587.085735 488.004536 560.459928 488.004536 518.981345 365.216981 542.188139 365.216981 573.812358 468.024097 605.232359 365.216981 631.615244 365.216981 663.094534 468.21496 679.078239 416.086513 694.675933 365.216981 717.867905 365.216981"></polygon>
                        <path d="M828.416192,469.652696 C840.941953,469.652696 851.231648,465.702715 859.294358,457.800372 C867.353767,449.898028 871.385122,439.749773 871.385122,427.353225 C871.385122,414.164935 867.063218,403.533542 858.424365,395.459047 C849.782209,387.386138 838.44588,383.349684 824.415378,383.349684 L763.874891,383.349684 L763.874891,469.652696 L828.416192,469.652696 Z M822.675391,365 C844.59444,365 861.959642,370.692924 874.77595,382.075598 C887.590608,393.456686 894,408.720323 894,427.858575 C894,445.416517 887.215041,460.026451 873.645949,471.690757 C861.002979,482.562528 845.347223,488 826.676205,488 L743,488 L743,365 L822.675391,365 Z" id="Fill-9" fill="#FEFEFE"></path>
                        <path d="M828.416192,469.652696 C840.941953,469.652696 851.231648,465.702715 859.294358,457.800372 C867.353767,449.898028 871.385122,439.749773 871.385122,427.353225 C871.385122,414.164935 867.063218,403.533542 858.424365,395.459047 C849.782209,387.386138 838.44588,383.349684 824.415378,383.349684 L763.874891,383.349684 L763.874891,469.652696 L828.416192,469.652696 L828.416192,469.652696 Z M822.675391,365 C844.59444,365 861.959642,370.692924 874.77595,382.075598 C887.590608,393.456686 894,408.720323 894,427.858575 C894,445.416517 887.215041,460.026451 873.645949,471.690757 C861.002979,482.562528 845.347223,488 826.676205,488 L743,488 L743,365 L822.675391,365 L822.675391,365 Z" id="Stroke-11" stroke="#FEFEFE" stroke-width="10.622"></path>
                        <polygon id="Fill-13" fill="#3299CC" points="1041.97934 383.534297 982.099829 383.534297 982.099829 488.004536 961.332545 488.004536 961.332545 383.534297 901.4555 383.534297 901.4555 365.216981 1041.97934 365.216981"></polygon>
                        <polygon id="Stroke-15" stroke="#3299CC" stroke-width="10.622" points="1040.27945 383.534297 980.399944 383.534297 980.399944 488.004536 959.63266 488.004536 959.63266 383.534297 899.755615 383.534297 899.755615 365.216981 1040.27945 365.216981"></polygon>
                        <polygon id="Fill-17" fill="#F9D133" points="725.427731 359.790039 681.253906 493.887695 645.570312 493.887695 691.003906 359.790039"></polygon>
                        <path d="M0,904.083292 L10.656,904.083292 L31.68,981.123292 L61.344,904.083292 L63.36,904.083292 L92.736,981.123292 L114.192,904.083292 L124.704,904.083292 L95.04,1010.06729 L93.024,1010.06729 L62.352,929.283292 L31.104,1010.06729 L29.232,1010.06729 L0,904.083292 Z M253.903999,982.707292 L262.255999,987.027292 C253.999958,1002.38737 241.80808,1010.06729 225.679999,1010.06729 C214.159941,1010.06729 204.656036,1006.10733 197.167999,998.187292 C189.679961,990.267252 185.935999,980.739347 185.935999,969.603292 C185.935999,958.467236 189.703961,948.915332 197.239999,940.947292 C204.776037,932.979252 214.087943,928.995292 225.175999,928.995292 C236.264054,928.995292 245.575961,932.691255 253.111999,940.083292 C260.648037,947.475329 264.559997,957.555228 264.847999,970.323292 L196.015999,970.323292 C196.304,979.539338 199.207971,986.955264 204.727999,992.571292 C210.248027,998.18732 216.94396,1000.99529 224.815999,1000.99529 C237.776064,1000.99529 247.471967,994.899353 253.903999,982.707292 L253.903999,982.707292 Z M253.903999,961.827292 C252.559992,954.531255 249.200026,948.819312 243.823999,944.691292 C238.447972,940.563271 232.256034,938.499292 225.247999,938.499292 C210.847927,938.499292 201.440021,946.275214 197.023999,961.827292 L253.903999,961.827292 Z M330.975998,1007.47529 L330.975998,901.491292 L340.623998,901.491292 L340.623998,944.115292 C348.97604,934.035241 359.199937,928.995292 371.295998,928.995292 C382.240053,928.995292 391.52796,932.955252 399.159998,940.875292 C406.792036,948.795331 410.607998,958.323236 410.607998,969.459292 C410.607998,980.595347 406.720037,990.147252 398.943998,998.115292 C391.167959,1006.08333 381.856052,1010.06729 371.007998,1010.06729 C358.911937,1010.06729 348.784039,1004.49935 340.623998,993.363292 L340.623998,1007.47529 L330.975998,1007.47529 Z M340.047998,968.739292 C340.047998,977.667336 342.975969,985.203261 348.831998,991.347292 C354.688027,997.491322 361.839956,1000.56329 370.287998,1000.56329 C378.73604,1000.56329 385.911968,997.443323 391.815998,991.203292 C397.720027,984.963261 400.671998,977.643334 400.671998,969.243292 C400.671998,960.84325 397.792027,953.523323 392.031998,947.283292 C386.271969,941.043261 379.072041,937.923292 370.431998,937.923292 C361.791955,937.923292 354.568027,940.851262 348.759998,946.707292 C342.951969,952.563321 340.047998,959.907248 340.047998,968.739292 L340.047998,968.739292 Z M560.287996,1007.47529 L560.287996,904.083292 L581.743996,904.083292 C596.432069,904.083292 607.207961,905.163281 614.071996,907.323292 C620.93603,909.483303 626.863971,912.891268 631.855996,917.547292 C636.848021,922.203315 640.687982,927.891258 643.375996,934.611292 C646.064009,941.331325 647.407996,949.179247 647.407996,958.155292 C647.407996,967.131337 645.320017,975.579252 641.143996,983.499292 C636.967975,991.419331 631.304031,997.395272 624.151996,1001.42729 C616.99996,1005.45931 606.704063,1007.47529 593.263996,1007.47529 L560.287996,1007.47529 Z M570.223996,997.683292 L582.175996,997.683292 C594.656058,997.683292 603.703968,997.059298 609.319996,995.811292 C614.936024,994.563285 619.855975,992.09131 624.079996,988.395292 C628.304017,984.699273 631.519985,980.211318 633.727996,974.931292 C635.936007,969.651265 637.039996,963.603326 637.039996,956.787292 C637.039996,949.971258 635.768008,943.683321 633.223996,937.923292 C630.679983,932.163263 627.056019,927.41131 622.351996,923.667292 C617.647972,919.923273 612.104028,917.403298 605.719996,916.107292 C599.335964,914.811285 589.952058,914.163292 577.567996,914.163292 L570.223996,914.163292 L570.223996,997.683292 Z M777.327995,982.707292 L785.679995,987.027292 C777.423953,1002.38737 765.232075,1010.06729 749.103995,1010.06729 C737.583937,1010.06729 728.080032,1006.10733 720.591995,998.187292 C713.103957,990.267252 709.359995,980.739347 709.359995,969.603292 C709.359995,958.467236 713.127957,948.915332 720.663995,940.947292 C728.200032,932.979252 737.511939,928.995292 748.599995,928.995292 C759.68805,928.995292 768.999957,932.691255 776.535995,940.083292 C784.072032,947.475329 787.983993,957.555228 788.271995,970.323292 L719.439995,970.323292 C719.727996,979.539338 722.631967,986.955264 728.151995,992.571292 C733.672022,998.18732 740.367955,1000.99529 748.239995,1000.99529 C761.200059,1000.99529 770.895962,994.899353 777.327995,982.707292 L777.327995,982.707292 Z M777.327995,961.827292 C775.983988,954.531255 772.624022,948.819312 767.247995,944.691292 C761.871968,940.563271 755.68003,938.499292 748.671995,938.499292 C734.271923,938.499292 724.864017,946.275214 720.447995,961.827292 L777.327995,961.827292 Z M846.479994,931.011292 L856.991994,931.011292 L882.479994,989.187292 L907.967994,931.011292 L918.479994,931.011292 L883.487994,1010.06729 L881.759994,1010.06729 L846.479994,931.011292 Z M1055.05599,914.163292 L1055.05599,904.083292 L1111.79199,904.083292 L1111.79199,914.163292 L1088.75199,914.163292 L1088.75199,1007.47529 L1078.23999,1007.47529 L1078.23999,914.163292 L1055.05599,914.163292 Z M1248.33599,931.011292 L1248.33599,1007.47529 L1238.68799,1007.47529 L1238.68799,994.371292 C1229.95195,1004.83534 1219.96805,1010.06729 1208.73599,1010.06729 C1197.50393,1010.06729 1188.02403,1006.05933 1180.29599,998.043292 C1172.56795,990.027252 1168.70399,980.475347 1168.70399,969.387292 C1168.70399,958.299236 1172.59195,948.795331 1180.36799,940.875292 C1188.14403,932.955252 1197.45594,928.995292 1208.30399,928.995292 C1220.78405,928.995292 1230.91195,934.323238 1238.68799,944.979292 L1238.68799,931.011292 L1248.33599,931.011292 Z M1239.26399,969.603292 C1239.26399,960.867248 1236.33602,953.499322 1230.47999,947.499292 C1224.62396,941.499262 1217.44803,938.499292 1208.95199,938.499292 C1200.45595,938.499292 1193.28002,941.595261 1187.42399,947.787292 C1181.56796,953.979323 1178.63999,961.299249 1178.63999,969.747292 C1178.63999,978.195334 1181.61596,985.515261 1187.56799,991.707292 C1193.52002,997.899323 1200.64795,1000.99529 1208.95199,1000.99529 C1217.25603,1000.99529 1224.38396,998.019321 1230.33599,992.067292 C1236.28802,986.115262 1239.26399,978.627337 1239.26399,969.603292 L1239.26399,969.603292 Z M1316.19199,901.491292 L1325.98399,901.491292 L1325.98399,1007.47529 L1316.19199,1007.47529 L1316.19199,901.491292 Z M1392.11199,901.491292 L1402.04799,901.491292 L1402.04799,961.827292 L1437.32799,931.011292 L1451.87199,931.011292 L1409.82399,967.443292 L1454.31999,1007.47529 L1440.35199,1007.47529 L1402.04799,973.059292 L1402.04799,1007.47529 L1392.11199,1007.47529 L1392.11199,901.491292 Z M1551.40799,939.363292 L1545.07199,945.843292 C1539.79196,940.755266 1534.65601,938.211292 1529.66399,938.211292 C1526.39997,938.211292 1523.664,939.243281 1521.45599,941.307292 C1519.24798,943.371302 1518.14399,945.915277 1518.14399,948.939292 C1518.14399,951.963307 1519.31998,954.555281 1521.67199,956.715292 C1524.024,958.875303 1528.07996,961.467277 1533.83999,964.491292 C1539.60002,967.515307 1543.99197,970.779274 1547.01599,974.283292 C1550.04,977.787309 1551.55199,982.083266 1551.55199,987.171292 C1551.55199,993.603324 1549.32001,999.02727 1544.85599,1003.44329 C1540.39196,1007.85931 1534.89602,1010.06729 1528.36799,1010.06729 C1524.04797,1010.06729 1519.89601,1009.1073 1515.91199,1007.18729 C1511.92797,1005.26728 1508.544,1002.57931 1505.75999,999.123292 L1511.95199,992.211292 C1517.04001,997.87532 1522.36796,1000.70729 1527.93599,1000.70729 C1531.87201,1000.70729 1535.23197,999.411305 1538.01599,996.819292 C1540.8,994.227279 1542.19199,991.179309 1542.19199,987.675292 C1542.19199,984.171274 1540.968,981.291303 1538.51999,979.035292 C1536.07197,976.77928 1531.99202,974.211306 1526.27999,971.331292 C1520.56796,968.451277 1516.296,965.307309 1513.46399,961.899292 C1510.63197,958.491275 1509.21599,954.075319 1509.21599,948.651292 C1509.21599,943.227265 1511.20797,938.595311 1515.19199,934.755292 C1519.17601,930.915273 1524.45595,928.995292 1531.03199,928.995292 C1537.60802,928.995292 1544.39995,932.451257 1551.40799,939.363292 L1551.40799,939.363292 Z" id="Web-Dev-Talks" fill="#FFFFFF"></path>
                    </g>
                </g>
            </g>
        </g>
    </g>
</svg>