<?xml version="1.0" encoding="utf-8"?>
<!-- Generator: Adobe Illustrator 15.1.0, SVG Export Plug-In . SVG Version: 6.00 Build 0)  -->
<!DOCTYPE svg PUBLIC "-//W3C//DTD SVG 1.1//EN" "http://www.w3.org/Graphics/SVG/1.1/DTD/svg11.dtd">
<svg version="1.1" id="Layer_1" xmlns="http://www.w3.org/2000/svg" xmlns:xlink="http://www.w3.org/1999/xlink" x="0px" y="0px"
	 width="750px" height="640.965px" viewBox="0 0 750 640.965" enable-background="new 0 0 750 640.965" xml:space="preserve">
<g>
	<g>
		<circle fill="#09BCD4" cx="554.287" cy="190.517" r="7.528"/>
		<path fill="#09BCD4" d="M649.456,94.831c-28.502,0-51.608,23.105-51.608,51.607s23.106,51.607,51.608,51.607
			c28.501,0,51.606-23.105,51.606-51.607S677.957,94.831,649.456,94.831z M649.455,182.954c-20.178,0-36.534-16.356-36.534-36.533
			c0-20.178,16.356-36.535,36.534-36.535s36.534,16.357,36.534,36.535C685.989,166.598,669.633,182.954,649.455,182.954z"/>
		<path fill="#09BCD4" d="M588.562,102.356c0-4.156-3.368-7.525-7.524-7.525s-7.525,3.369-7.525,7.525
			c0,0.006,0.011,88.347,0.011,88.347c0.1,4.069,3.422,7.339,7.516,7.339s7.416-3.27,7.516-7.339
			C588.554,190.703,588.562,102.362,588.562,102.356z"/>
		<path fill="#37474F" d="M222.109,100.557c-4.156,0-7.525,3.369-7.525,7.525l-0.002,1.933
			c-9.344-9.379-22.271-15.184-36.556-15.184c-28.501,0-51.605,23.105-51.605,51.606s23.104,51.606,51.605,51.606
			c14.285,0,27.212-5.805,36.556-15.184l0.002,7.656c0,4.156,3.369,7.525,7.525,7.525c4.156,0,7.525-3.369,7.525-7.525V108.08
			C229.635,103.926,226.266,100.557,222.109,100.557z M178.026,182.988c-20.184,0-36.549-16.364-36.549-36.551
			c0-20.185,16.365-36.552,36.549-36.552c20.189,0,36.556,16.367,36.556,36.552C214.582,166.624,198.216,182.988,178.026,182.988z"
			/>
		<path fill="#37474F" d="M342.165,146.438h0.004c0-28.501-23.104-51.606-51.608-51.606c-14.28,0-27.207,5.805-36.556,15.184
			c0,0,0.002-1.92,0.002-1.933c0-4.156-3.369-7.525-7.525-7.525c-4.156,0-7.525,3.369-7.525,7.525v82.435
			c0,4.156,3.369,7.525,7.525,7.525c4.156,0,7.525-3.369,7.525-7.525c0-0.014-0.002-44.079-0.002-44.079h0.008
			c0-20.188,16.366-36.552,36.548-36.552c20.188,0,36.555,16.363,36.555,36.552l0.003,44.079c0,4.156,3.369,7.525,7.525,7.525
			c4.156,0,7.525-3.369,7.525-7.525C342.169,190.489,342.165,146.438,342.165,146.438z"/>
		<path fill="#37474F" d="M500.67,94.831c-61.029,0-52.873,88.143-101.749,88.157c0,0-0.012,0-0.02,0v0.001
			c-20.714-0.004-36.548-16.922-36.548-36.555c0-19.63,15.836-36.547,36.55-36.547c0.002,0,0.004,0,0.006,0
			c20.5,0,32.451,15.924,39.43,30.382c0.044-0.083,5.419-10.252,8.319-15.161c-2.468-4.327-6.469-10.264-12.218-15.736l2.777-4.821
			c1.79-3.107,0.724-7.078-2.385-8.868s-7.077-0.722-8.867,2.386l-1.974,3.426c-6.818-3.947-15.123-6.663-25.084-6.663
			c-28.507,0-51.609,23.107-51.609,51.607s23.103,51.607,51.609,51.607c0.01,0,0.02-0.001,0.031-0.001
			c20.169,0.022,36.512,16.373,36.517,36.542c-0.005,20.185-16.371,36.543-36.556,36.543s-36.55-16.363-36.55-36.551
			c0-4.152-3.372-7.524-7.527-7.524c-4.155,0-7.524,3.368-7.524,7.524c0,28.501,23.103,51.607,51.603,51.607v0.016
			c28.504,0,51.608-23.106,51.608-51.607c0-0.004,0-0.006,0-0.01c0-0.002,0-0.004,0-0.006c-0.006-18.643-9.896-34.971-24.718-44.036
			c33.045-21.298,34.754-80.655,74.877-80.655c20.717,0,36.551,16.917,36.551,36.547c0,19.635-15.834,36.555-36.551,36.555
			c-20.589,0-32.451-15.926-39.43-30.383c-0.044,0.083-5.419,10.252-8.319,15.161c5.956,10.446,20.816,30.278,47.749,30.278
			c28.504,0,51.608-23.107,51.608-51.607S529.174,94.831,500.67,94.831z"/>
		<path fill="#37474F" d="M128.386,181.374c-2.008-3.631-6.579-4.945-10.209-2.938c-5.378,2.974-11.479,4.546-17.646,4.546
			c-20.15,0-36.544-16.393-36.544-36.545l-0.008-30.829h29.03c4.156,0,7.525-3.369,7.525-7.525c0-4.156-3.369-7.525-7.525-7.525
			H63.976l-0.015-54.466c-0.001-4.147-3.363-7.51-7.512-7.51h-0.002c-4.148,0.002-7.511,3.365-7.51,7.514l0.025,100.344
			c0,28.434,23.133,51.566,51.567,51.566c8.703,0,17.319-2.221,24.917-6.422C129.078,189.575,130.394,185.005,128.386,181.374z"/>
	</g>
</g>
</svg>
